<svg width="32" height="32" viewBox="0 0 32 32" fill="none" xmlns="http://www.w3.org/2000/svg">
<g filter="url(#filter0_dd_223_23952)">
<path d="M2.16014 7.40399C2.10433 5.95547 2.07643 5.23121 2.34097 4.67547C2.57355 4.18689 2.95837 3.78696 3.43764 3.53574C3.98278 3.25 4.70758 3.25 6.15717 3.25H9.84362C10.3649 3.25 10.6255 3.25 10.8748 3.30127C11.0959 3.34675 11.3098 3.42198 11.5108 3.5249C11.7372 3.6409 11.9405 3.80402 12.3471 4.13025L12.9031 4.57648C13.3097 4.90271 13.513 5.06583 13.7394 5.18183C13.9404 5.28475 14.1543 5.35998 14.3754 5.40546C14.6247 5.45673 14.8853 5.45673 15.4066 5.45673H25.8278C27.2822 5.45673 28.0094 5.45673 28.5555 5.74375C29.0356 5.99606 29.4206 6.39767 29.6525 6.88797C29.9162 7.44569 29.8856 8.17222 29.8243 9.62529L29.1792 24.9186C29.1224 26.2651 29.094 26.9383 28.8139 27.4502C28.5674 27.9007 28.1881 28.2643 27.7276 28.4917C27.2044 28.75 26.5305 28.75 25.1828 28.75H6.8314C5.47923 28.75 4.80314 28.75 4.27891 28.4905C3.81756 28.2621 3.43796 27.8968 3.19196 27.4446C2.91245 26.9308 2.88643 26.2552 2.83437 24.904L2.16014 7.40399Z" fill="black"/>
</g>
<path d="M1.90981 7.15373C1.8541 5.70529 1.82624 4.98107 2.0908 4.42537C2.32339 3.93682 2.70821 3.53691 3.18746 3.28572C3.73259 3 4.45734 3 5.90685 3H9.75687C10.2788 3 10.5398 3 10.7893 3.0514C11.0107 3.09699 11.2249 3.1724 11.426 3.27557C11.6527 3.39185 11.8561 3.55535 12.2629 3.88235L12.8666 4.36765C13.2735 4.69465 13.4769 4.85815 13.7036 4.97443C13.9047 5.0776 14.1189 5.15301 14.3402 5.1986C14.5898 5.25 14.8508 5.25 15.3727 5.25H26.0781C27.5323 5.25 28.2595 5.25 28.8056 5.53699C29.2857 5.78929 29.6707 6.19085 29.9025 6.68112C30.1663 7.2388 30.1357 7.96529 30.0745 9.41827L29.4114 25.1683C29.3547 26.5149 29.3263 27.1882 29.0462 27.7001C28.7997 28.1506 28.4204 28.5143 27.9599 28.7417C27.4366 29 26.7627 29 25.4149 29H6.59915C5.24689 29 4.57076 29 4.04652 28.7405C3.58515 28.512 3.20555 28.1468 2.95956 27.6945C2.68006 27.1806 2.65408 26.505 2.60211 25.1537L1.90981 7.15373Z" fill="url(#paint0_linear_223_23952)"/>
<path d="M9.75664 3C10.2786 3 10.5396 3.00012 10.7891 3.05151C11.0105 3.09711 11.2247 3.17247 11.4258 3.27563C11.6525 3.39192 11.856 3.55534 12.2627 3.88232L12.8665 4.36768C13.2733 4.69465 13.4767 4.85809 13.7034 4.97437C13.9045 5.07752 14.1188 5.15289 14.3401 5.19849C14.5897 5.24987 14.8507 5.25 15.3726 5.25H26.0779C27.5322 5.25 28.2594 5.25012 28.8055 5.53711C29.2855 5.78941 29.6705 6.19092 29.9024 6.68115C30.0775 7.05138 30.1225 7.49602 30.1153 8.17822C30.1087 7.63371 30.0551 7.25412 29.9024 6.93115C29.6705 6.44092 29.2855 6.03941 28.8055 5.78711C28.2594 5.50012 27.5322 5.5 26.0779 5.5H15.2452C14.7233 5.5 14.4622 5.49988 14.2127 5.44849C13.9914 5.40289 13.7773 5.32749 13.5762 5.22437C13.3495 5.10809 13.1461 4.94464 12.7393 4.61768L12.1355 4.13232C11.7288 3.80535 11.5253 3.64191 11.2986 3.52563C11.0975 3.42248 10.8833 3.34711 10.6619 3.30151C10.4124 3.25012 10.1514 3.25 9.62944 3.25H5.90654C4.45716 3.25 3.73241 3.24996 3.18731 3.53564C2.70808 3.78683 2.32322 4.18677 2.09063 4.67529C1.93253 5.00737 1.87905 5.39969 1.87334 5.9707C1.86583 5.26042 1.91045 4.80374 2.09063 4.42529C2.32322 3.93677 2.70808 3.53683 3.18731 3.28564C3.73241 2.99996 4.45716 3 5.90654 3H9.75664Z" fill="white" fill-opacity="0.2"/>
<g filter="url(#filter1_d_223_23952)">
<path d="M4.25 9.1C4.25 8.53995 4.25 8.25992 4.35899 8.04601C4.45487 7.85785 4.60785 7.70487 4.79601 7.60899C5.00992 7.5 5.28995 7.5 5.85 7.5H26.15C26.7101 7.5 26.9901 7.5 27.204 7.60899C27.3922 7.70487 27.5451 7.85785 27.641 8.04601C27.75 8.25992 27.75 8.53995 27.75 9.1V10.9C27.75 11.4601 27.75 11.7401 27.641 11.954C27.5451 12.1422 27.3922 12.2951 27.204 12.391C26.9901 12.5 26.7101 12.5 26.15 12.5H5.85C5.28995 12.5 5.00992 12.5 4.79601 12.391C4.60785 12.2951 4.45487 12.1422 4.35899 11.954C4.25 11.7401 4.25 11.4601 4.25 10.9V9.1Z" fill="url(#paint1_linear_223_23952)"/>
</g>
<path d="M1.77762 14.01C1.6811 12.5285 1.63285 11.7878 1.89138 11.2176C2.11859 10.7165 2.50476 10.3044 2.99003 10.0451C3.5422 9.75 4.28452 9.75 5.76916 9.75H26.231C27.7157 9.75 28.458 9.75 29.0102 10.0451C29.4954 10.3044 29.8816 10.7165 30.1088 11.2176C30.3673 11.7878 30.3191 12.5285 30.2226 14.01L29.4897 25.26C29.4038 26.5772 29.3609 27.2358 29.0771 27.7352C28.8272 28.1749 28.4499 28.5285 27.9949 28.7492C27.478 29 26.8181 29 25.4981 29H6.50206C5.18211 29 4.52214 29 4.0053 28.7492C3.55029 28.5285 3.17293 28.1749 2.92305 27.7352C2.63923 27.2358 2.59632 26.5772 2.51051 25.26L1.77762 14.01Z" fill="url(#paint2_linear_223_23952)"/>
<path d="M26.231 9.75C27.7156 9.75 28.4578 9.75011 29.01 10.0452C29.4952 10.3045 29.8814 10.7165 30.1086 11.2175C30.2706 11.5747 30.3121 11.9988 30.2969 12.6299C30.2957 12.1337 30.2462 11.7766 30.1069 11.469C29.8799 10.9675 29.4937 10.555 29.0083 10.2954C28.4559 10.0001 27.713 10 26.2273 10H5.7727C4.28694 10 3.54409 10.0001 2.99169 10.2954C2.50624 10.555 2.12009 10.9675 1.89306 11.469C1.75381 11.7766 1.70403 12.1337 1.70287 12.6299C1.68762 11.9988 1.72942 11.5747 1.89135 11.2175C2.11857 10.7165 2.50475 10.3045 2.98998 10.0452C3.54215 9.75011 4.28441 9.75 5.76904 9.75H26.231Z" fill="white" fill-opacity="0.3"/>
<defs>
<filter id="filter0_dd_223_23952" x="0.623047" y="2.25" width="30.7434" height="28.5" filterUnits="userSpaceOnUse" color-interpolation-filters="sRGB">
<feFlood flood-opacity="0" result="BackgroundImageFix"/>
<feColorMatrix in="SourceAlpha" type="matrix" values="0 0 0 0 0 0 0 0 0 0 0 0 0 0 0 0 0 0 127 0" result="hardAlpha"/>
<feOffset dy="0.5"/>
<feGaussianBlur stdDeviation="0.75"/>
<feComposite in2="hardAlpha" operator="out"/>
<feColorMatrix type="matrix" values="0 0 0 0 0 0 0 0 0 0 0 0 0 0 0 0 0 0 0.25 0"/>
<feBlend mode="normal" in2="BackgroundImageFix" result="effect1_dropShadow_223_23952"/>
<feColorMatrix in="SourceAlpha" type="matrix" values="0 0 0 0 0 0 0 0 0 0 0 0 0 0 0 0 0 0 127 0" result="hardAlpha"/>
<feOffset dy="0.25"/>
<feGaussianBlur stdDeviation="0.5"/>
<feComposite in2="hardAlpha" operator="out"/>
<feColorMatrix type="matrix" values="0 0 0 0 0 0 0 0 0 0 0 0 0 0 0 0 0 0 0.1 0"/>
<feBlend mode="normal" in2="effect1_dropShadow_223_23952" result="effect2_dropShadow_223_23952"/>
<feBlend mode="normal" in="SourceGraphic" in2="effect2_dropShadow_223_23952" result="shape"/>
</filter>
<filter id="filter1_d_223_23952" x="2.75" y="7" width="26.5" height="8" filterUnits="userSpaceOnUse" color-interpolation-filters="sRGB">
<feFlood flood-opacity="0" result="BackgroundImageFix"/>
<feColorMatrix in="SourceAlpha" type="matrix" values="0 0 0 0 0 0 0 0 0 0 0 0 0 0 0 0 0 0 127 0" result="hardAlpha"/>
<feOffset dy="1"/>
<feGaussianBlur stdDeviation="0.75"/>
<feComposite in2="hardAlpha" operator="out"/>
<feColorMatrix type="matrix" values="0 0 0 0 0 0 0 0 0 0 0 0 0 0 0 0 0 0 0.1 0"/>
<feBlend mode="normal" in2="BackgroundImageFix" result="effect1_dropShadow_223_23952"/>
<feBlend mode="normal" in="SourceGraphic" in2="effect1_dropShadow_223_23952" result="shape"/>
</filter>
<linearGradient id="paint0_linear_223_23952" x1="16.0001" y1="3" x2="16.0001" y2="29" gradientUnits="userSpaceOnUse">
<stop offset="0.0270912" stop-color="#42AEFB"/>
<stop offset="0.499379" stop-color="#1776C6"/>
</linearGradient>
<linearGradient id="paint1_linear_223_23952" x1="16" y1="7.5" x2="16" y2="12.5" gradientUnits="userSpaceOnUse">
<stop offset="0.299441" stop-color="#FBFFFE"/>
<stop offset="1" stop-color="#B0B7BC"/>
</linearGradient>
<linearGradient id="paint2_linear_223_23952" x1="16.0001" y1="9.75" x2="16.0001" y2="29" gradientUnits="userSpaceOnUse">
<stop stop-color="#7DD2FF"/>
<stop offset="1" stop-color="#289FEF"/>
</linearGradient>
</defs>
</svg>
